<?xml version="1.0" encoding="utf-8"?>
<!-- Generator: Adobe Illustrator 26.0.1, SVG Export Plug-In . SVG Version: 6.00 Build 0)  -->
<svg version="1.1" id="Layer_1" xmlns="http://www.w3.org/2000/svg" xmlns:xlink="http://www.w3.org/1999/xlink" x="0px" y="0px"
	 viewBox="0 0 652.51 194.83" style="enable-background:new 0 0 652.51 194.83;" xml:space="preserve">
<style type="text/css">
	.st0{fill:#D74444;}
	.st1{fill:#2F2E5C;}
</style>
<g>
	<g>
		<g>
			<path class="st0" d="M80.73,77.83l9.76-9.21l27.37,28.46L89.85,123.4l-9.03-10.08l18.52-16.27L80.73,77.83z"/>
		</g>
		<path class="st1" d="M146.16,106.2c-4.15,23.18-24.38,40.78-48.75,40.78c-27.37,0-49.57-22.19-49.57-49.57
			c0-27.37,22.19-49.57,49.57-49.57c24.13,0,44.19,17.25,48.62,40.09h48.31C189.57,38.59,148.01,0,97.41,0C43.61,0,0,43.61,0,97.41
			s43.61,97.41,97.41,97.41c50.84,0,92.55-38.95,97-88.62H146.16z"/>
	</g>
	<g>
		<path class="st1" d="M295.39,80.69l-10.14,10.19c-0.51-1.42-1.2-2.69-2.08-3.83c-0.88-1.13-1.87-2.09-2.97-2.86
			c-1.1-0.78-2.29-1.37-3.57-1.77c-1.29-0.41-2.6-0.61-3.95-0.61c-1.89,0-3.68,0.39-5.35,1.17c-1.67,0.78-3.13,1.87-4.36,3.27
			c-1.23,1.4-2.21,3.07-2.92,4.99c-0.71,1.93-1.06,4.06-1.06,6.39c0,1.89,0.36,3.67,1.06,5.32c0.71,1.66,1.68,3.11,2.92,4.36
			c1.23,1.25,2.69,2.23,4.36,2.94c1.67,0.71,3.46,1.06,5.35,1.06c1.35,0,2.65-0.18,3.9-0.56c1.25-0.37,2.43-0.9,3.52-1.6
			c1.1-0.69,2.08-1.54,2.94-2.53c0.86-1,1.56-2.1,2.1-3.32l10.14,10.19c-1.28,1.83-2.76,3.47-4.44,4.92
			c-1.67,1.45-3.48,2.69-5.43,3.7c-1.94,1.01-3.99,1.78-6.13,2.31c-2.15,0.52-4.35,0.79-6.62,0.79c-3.82,0-7.41-0.72-10.77-2.16
			c-3.36-1.44-6.3-3.4-8.82-5.91c-2.52-2.5-4.5-5.43-5.96-8.77c-1.45-3.35-2.18-6.93-2.18-10.75c0-4.16,0.73-8.04,2.18-11.66
			c1.45-3.62,3.44-6.77,5.96-9.46s5.46-4.81,8.82-6.36c3.36-1.55,6.95-2.33,10.77-2.33c2.26,0,4.49,0.29,6.67,0.86
			c2.18,0.57,4.26,1.41,6.24,2.51c1.98,1.1,3.8,2.44,5.48,4.03C292.73,76.8,294.17,78.63,295.39,80.69z"/>
		<path class="st1" d="M326.36,124.19h-13.84v-54.3h3.35l4.56,6.44c2.23-2.03,4.77-3.59,7.6-4.69c2.84-1.1,5.78-1.65,8.82-1.65
			h12.22v13.79h-12.22c-1.45,0-2.82,0.27-4.11,0.81c-1.29,0.54-2.4,1.29-3.35,2.23c-0.95,0.95-1.69,2.06-2.23,3.35
			c-0.54,1.29-0.81,2.65-0.81,4.11V124.19z"/>
		<path class="st1" d="M386.48,110.91c0.54,0.17,1.08,0.28,1.62,0.33c0.54,0.05,1.08,0.08,1.62,0.08c1.35,0,2.65-0.18,3.9-0.56
			c1.25-0.37,2.42-0.9,3.52-1.6c1.1-0.69,2.08-1.54,2.94-2.53c0.86-1,1.56-2.1,2.1-3.32l10.14,10.19c-1.29,1.83-2.76,3.47-4.44,4.92
			c-1.67,1.45-3.48,2.69-5.42,3.7c-1.94,1.01-3.99,1.78-6.14,2.31c-2.15,0.52-4.35,0.79-6.62,0.79c-3.82,0-7.41-0.71-10.77-2.13
			c-3.36-1.42-6.3-3.4-8.82-5.93c-2.52-2.53-4.5-5.55-5.96-9.05c-1.45-3.5-2.18-7.34-2.18-11.53c0-4.29,0.73-8.21,2.18-11.76
			c1.45-3.55,3.44-6.57,5.96-9.08c2.52-2.5,5.46-4.44,8.82-5.83c3.36-1.39,6.95-2.08,10.77-2.08c2.26,0,4.48,0.27,6.64,0.81
			c2.16,0.54,4.22,1.32,6.16,2.33c1.94,1.01,3.76,2.26,5.45,3.73c1.69,1.47,3.18,3.12,4.46,4.94L386.48,110.91z M393.58,82.36
			c-0.64-0.24-1.28-0.39-1.9-0.46c-0.63-0.07-1.28-0.1-1.95-0.1c-1.89,0-3.68,0.35-5.35,1.04c-1.67,0.69-3.13,1.68-4.36,2.97
			c-1.24,1.29-2.21,2.83-2.92,4.64c-0.71,1.81-1.06,3.85-1.06,6.11c0,0.51,0.03,1.08,0.08,1.72c0.05,0.64,0.13,1.29,0.25,1.95
			c0.12,0.66,0.26,1.29,0.43,1.9c0.17,0.61,0.39,1.15,0.66,1.62L393.58,82.36z"/>
		<path class="st1" d="M481.93,124.19h-3.35l-5.37-7.45c-1.32,1.18-2.71,2.29-4.18,3.32c-1.47,1.03-3.02,1.93-4.64,2.69
			c-1.62,0.76-3.29,1.36-4.99,1.8c-1.71,0.44-3.44,0.66-5.2,0.66c-3.82,0-7.41-0.64-10.77-1.93c-3.36-1.28-6.3-3.15-8.82-5.6
			c-2.52-2.45-4.5-5.45-5.96-9c-1.45-3.55-2.18-7.59-2.18-12.12c0-4.22,0.73-8.1,2.18-11.64c1.45-3.53,3.44-6.57,5.96-9.1
			c2.52-2.53,5.46-4.5,8.82-5.91c3.36-1.4,6.95-2.1,10.77-2.1c1.76,0,3.5,0.22,5.22,0.66c1.72,0.44,3.4,1.05,5.02,1.82
			c1.62,0.78,3.17,1.69,4.64,2.74c1.47,1.05,2.85,2.18,4.13,3.4l5.37-6.44h3.35V124.19z M467.99,96.56c0-1.89-0.36-3.73-1.09-5.5
			c-0.73-1.78-1.72-3.35-2.97-4.72c-1.25-1.37-2.71-2.47-4.39-3.3c-1.67-0.83-3.46-1.24-5.35-1.24c-1.89,0-3.68,0.32-5.35,0.96
			c-1.67,0.64-3.13,1.59-4.36,2.84c-1.24,1.25-2.21,2.8-2.92,4.64c-0.71,1.84-1.06,3.95-1.06,6.31c0,2.37,0.35,4.47,1.06,6.31
			c0.71,1.84,1.68,3.39,2.92,4.64c1.23,1.25,2.69,2.2,4.36,2.84c1.67,0.64,3.46,0.96,5.35,0.96c1.89,0,3.68-0.41,5.35-1.24
			s3.14-1.93,4.39-3.3c1.25-1.37,2.24-2.94,2.97-4.72C467.63,100.28,467.99,98.45,467.99,96.56z"/>
		<path class="st1" d="M557.22,96.56c0,4.26-0.73,8.15-2.18,11.66c-1.45,3.52-3.43,6.53-5.93,9.05c-2.5,2.52-5.43,4.47-8.8,5.86
			c-3.36,1.39-6.97,2.08-10.82,2.08c-3.82,0-7.41-0.71-10.77-2.13c-3.36-1.42-6.3-3.4-8.82-5.93c-2.52-2.53-4.5-5.55-5.96-9.05
			c-1.45-3.5-2.18-7.34-2.18-11.53V48.29h13.89v25.35c0.74-0.95,1.65-1.79,2.71-2.54c1.06-0.74,2.21-1.35,3.45-1.82
			c1.23-0.47,2.51-0.84,3.83-1.09c1.32-0.25,2.6-0.38,3.85-0.38c3.85,0,7.46,0.72,10.82,2.15c3.36,1.44,6.3,3.44,8.8,6.01
			c2.5,2.57,4.48,5.6,5.93,9.1C556.49,88.57,557.22,92.4,557.22,96.56z M543.27,96.56c0-2.1-0.36-4.05-1.09-5.86
			c-0.73-1.81-1.72-3.37-2.97-4.69c-1.25-1.32-2.71-2.35-4.39-3.09c-1.67-0.74-3.46-1.12-5.35-1.12c-1.89,0-3.68,0.41-5.35,1.24
			c-1.67,0.83-3.14,1.93-4.39,3.3c-1.25,1.37-2.23,2.94-2.94,4.72c-0.71,1.77-1.06,3.61-1.06,5.5c0,2.1,0.35,4.04,1.06,5.83
			c0.71,1.79,1.69,3.35,2.94,4.66c1.25,1.32,2.71,2.36,4.39,3.12c1.67,0.76,3.46,1.14,5.35,1.14c1.89,0,3.68-0.38,5.35-1.14
			c1.67-0.76,3.14-1.8,4.39-3.12c1.25-1.32,2.24-2.87,2.97-4.66C542.91,100.6,543.27,98.65,543.27,96.56z"/>
		<path class="st1" d="M589.18,55.14c0,0.95-0.18,1.84-0.55,2.67c-0.36,0.83-0.86,1.55-1.49,2.16c-0.63,0.61-1.36,1.1-2.2,1.47
			c-0.84,0.36-1.74,0.55-2.69,0.55s-1.85-0.18-2.69-0.55c-0.84-0.36-1.57-0.85-2.18-1.47c-0.61-0.61-1.1-1.33-1.47-2.16
			c-0.36-0.83-0.54-1.72-0.54-2.67c0-0.93,0.18-1.81,0.54-2.65c0.36-0.84,0.85-1.57,1.47-2.18c0.61-0.61,1.34-1.1,2.18-1.47
			c0.84-0.36,1.74-0.54,2.69-0.54s1.85,0.18,2.69,0.54c0.84,0.36,1.57,0.85,2.2,1.47c0.63,0.61,1.12,1.34,1.49,2.18
			C589,53.33,589.18,54.21,589.18,55.14z M589.2,124.19h-13.94v-54.3h13.94V124.19z"/>
		<path class="st1" d="M652.51,124.19h-45.28l22.87-40.41h-22.87V69.99h45.28l-22.87,40.41h22.87V124.19z"/>
	</g>
</g>
</svg>
