<?xml version="1.0" encoding="utf-8"?>
<!-- Generator: Adobe Illustrator 19.0.0, SVG Export Plug-In . SVG Version: 6.00 Build 0)  -->
<svg version="1.1" id="Layer_1" xmlns="http://www.w3.org/2000/svg" xmlns:xlink="http://www.w3.org/1999/xlink" x="0px" y="0px"
	 viewBox="0 0 300.3 95.3" style="enable-background:new 0 0 300.3 95.3;" xml:space="preserve">
<style type="text/css">
	.st0{fill:#D74444;}
	.st1{fill:#FFFFFF;}
</style>
<g>
	<g>
		<g>
			<path class="st0" d="M37.2,41.4l4.5-4.2l12.6,13.1L41.3,62.4l-4.2-4.6l8.5-7.5L37.2,41.4z"/>
		</g>
		<path class="st1" d="M67.3,54.5C65.4,65.1,56,73.2,44.8,73.2C32.2,73.2,22,63,22,50.4c0-12.6,10.2-22.8,22.8-22.8
			c11.1,0,20.3,7.9,22.4,18.4h22.2C87.2,23.4,68.1,5.6,44.8,5.6C20.1,5.6,0,25.7,0,50.4s20.1,44.8,44.8,44.8
			c23.4,0,42.6-17.9,44.6-40.8H67.3z"/>
	</g>
	<g>
		<path class="st1" d="M135.9,42.7l-4.7,4.7c-0.2-0.7-0.6-1.2-1-1.8c-0.4-0.5-0.9-1-1.4-1.3c-0.5-0.4-1.1-0.6-1.6-0.8
			c-0.6-0.2-1.2-0.3-1.8-0.3c-0.9,0-1.7,0.2-2.5,0.5c-0.8,0.4-1.4,0.9-2,1.5c-0.6,0.6-1,1.4-1.3,2.3c-0.3,0.9-0.5,1.9-0.5,2.9
			c0,0.9,0.2,1.7,0.5,2.4c0.3,0.8,0.8,1.4,1.3,2c0.6,0.6,1.2,1,2,1.4c0.8,0.3,1.6,0.5,2.5,0.5c0.6,0,1.2-0.1,1.8-0.3
			c0.6-0.2,1.1-0.4,1.6-0.7c0.5-0.3,1-0.7,1.4-1.2c0.4-0.5,0.7-1,1-1.5l4.7,4.7c-0.6,0.8-1.3,1.6-2,2.3c-0.8,0.7-1.6,1.2-2.5,1.7
			c-0.9,0.5-1.8,0.8-2.8,1.1c-1,0.2-2,0.4-3,0.4c-1.8,0-3.4-0.3-5-1c-1.5-0.7-2.9-1.6-4.1-2.7c-1.2-1.2-2.1-2.5-2.7-4
			c-0.7-1.5-1-3.2-1-4.9c0-1.9,0.3-3.7,1-5.4c0.7-1.7,1.6-3.1,2.7-4.4c1.2-1.2,2.5-2.2,4.1-2.9c1.5-0.7,3.2-1.1,5-1.1
			c1,0,2.1,0.1,3.1,0.4c1,0.3,2,0.6,2.9,1.2c0.9,0.5,1.8,1.1,2.5,1.9C134.7,40.9,135.4,41.8,135.9,42.7z"/>
		<path class="st1" d="M150.2,62.8h-6.4v-25h1.5l2.1,3c1-0.9,2.2-1.7,3.5-2.2c1.3-0.5,2.7-0.8,4.1-0.8h5.6v6.3H155
			c-0.7,0-1.3,0.1-1.9,0.4c-0.6,0.2-1.1,0.6-1.5,1c-0.4,0.4-0.8,0.9-1,1.5c-0.2,0.6-0.4,1.2-0.4,1.9V62.8z"/>
		<path class="st1" d="M177.9,56.6c0.2,0.1,0.5,0.1,0.7,0.2c0.2,0,0.5,0,0.7,0c0.6,0,1.2-0.1,1.8-0.3c0.6-0.2,1.1-0.4,1.6-0.7
			c0.5-0.3,1-0.7,1.4-1.2c0.4-0.5,0.7-1,1-1.5l4.7,4.7c-0.6,0.8-1.3,1.6-2,2.3c-0.8,0.7-1.6,1.2-2.5,1.7c-0.9,0.5-1.8,0.8-2.8,1.1
			c-1,0.2-2,0.4-3,0.4c-1.8,0-3.4-0.3-5-1c-1.5-0.7-2.9-1.6-4.1-2.7c-1.2-1.2-2.1-2.6-2.7-4.2c-0.7-1.6-1-3.4-1-5.3
			c0-2,0.3-3.8,1-5.4c0.7-1.6,1.6-3,2.7-4.2c1.2-1.2,2.5-2,4.1-2.7c1.5-0.6,3.2-1,5-1c1,0,2.1,0.1,3.1,0.4c1,0.2,1.9,0.6,2.8,1.1
			c0.9,0.5,1.7,1,2.5,1.7c0.8,0.7,1.5,1.4,2.1,2.3L177.9,56.6z M181.1,43.5c-0.3-0.1-0.6-0.2-0.9-0.2c-0.3,0-0.6,0-0.9,0
			c-0.9,0-1.7,0.2-2.5,0.5c-0.8,0.3-1.4,0.8-2,1.4c-0.6,0.6-1,1.3-1.3,2.1c-0.3,0.8-0.5,1.8-0.5,2.8c0,0.2,0,0.5,0,0.8
			c0,0.3,0.1,0.6,0.1,0.9c0.1,0.3,0.1,0.6,0.2,0.9c0.1,0.3,0.2,0.5,0.3,0.7L181.1,43.5z"/>
		<path class="st1" d="M221.8,62.8h-1.5l-2.5-3.4c-0.6,0.5-1.2,1.1-1.9,1.5c-0.7,0.5-1.4,0.9-2.1,1.2c-0.7,0.4-1.5,0.6-2.3,0.8
			c-0.8,0.2-1.6,0.3-2.4,0.3c-1.8,0-3.4-0.3-5-0.9c-1.5-0.6-2.9-1.5-4.1-2.6c-1.2-1.1-2.1-2.5-2.7-4.1c-0.7-1.6-1-3.5-1-5.6
			c0-1.9,0.3-3.7,1-5.4c0.7-1.6,1.6-3,2.7-4.2c1.2-1.2,2.5-2.1,4.1-2.7c1.5-0.6,3.2-1,5-1c0.8,0,1.6,0.1,2.4,0.3
			c0.8,0.2,1.6,0.5,2.3,0.8c0.7,0.4,1.5,0.8,2.1,1.3c0.7,0.5,1.3,1,1.9,1.6l2.5-3h1.5V62.8z M215.4,50c0-0.9-0.2-1.7-0.5-2.5
			c-0.3-0.8-0.8-1.5-1.4-2.2c-0.6-0.6-1.2-1.1-2-1.5c-0.8-0.4-1.6-0.6-2.5-0.6c-0.9,0-1.7,0.1-2.5,0.4c-0.8,0.3-1.4,0.7-2,1.3
			c-0.6,0.6-1,1.3-1.3,2.1c-0.3,0.8-0.5,1.8-0.5,2.9c0,1.1,0.2,2.1,0.5,2.9c0.3,0.8,0.8,1.6,1.3,2.1c0.6,0.6,1.2,1,2,1.3
			c0.8,0.3,1.6,0.4,2.5,0.4c0.9,0,1.7-0.2,2.5-0.6c0.8-0.4,1.4-0.9,2-1.5c0.6-0.6,1-1.4,1.4-2.2C215.2,51.8,215.4,50.9,215.4,50z"/>
		<path class="st1" d="M256.4,50c0,2-0.3,3.7-1,5.4c-0.7,1.6-1.6,3-2.7,4.2c-1.2,1.2-2.5,2.1-4,2.7c-1.5,0.6-3.2,1-5,1
			c-1.8,0-3.4-0.3-5-1c-1.5-0.7-2.9-1.6-4.1-2.7c-1.2-1.2-2.1-2.6-2.7-4.2c-0.7-1.6-1-3.4-1-5.3V27.8h6.4v11.7
			c0.3-0.4,0.8-0.8,1.2-1.2c0.5-0.3,1-0.6,1.6-0.8c0.6-0.2,1.2-0.4,1.8-0.5c0.6-0.1,1.2-0.2,1.8-0.2c1.8,0,3.4,0.3,5,1
			c1.5,0.7,2.9,1.6,4,2.8c1.2,1.2,2.1,2.6,2.7,4.2C256.1,46.4,256.4,48.1,256.4,50z M250,50c0-1-0.2-1.9-0.5-2.7
			c-0.3-0.8-0.8-1.6-1.4-2.2c-0.6-0.6-1.2-1.1-2-1.4c-0.8-0.3-1.6-0.5-2.5-0.5c-0.9,0-1.7,0.2-2.5,0.6c-0.8,0.4-1.4,0.9-2,1.5
			c-0.6,0.6-1,1.4-1.4,2.2c-0.3,0.8-0.5,1.7-0.5,2.5c0,1,0.2,1.9,0.5,2.7c0.3,0.8,0.8,1.5,1.4,2.1c0.6,0.6,1.2,1.1,2,1.4
			c0.8,0.4,1.6,0.5,2.5,0.5c0.9,0,1.7-0.2,2.5-0.5c0.8-0.3,1.4-0.8,2-1.4s1-1.3,1.4-2.1C249.8,51.9,250,51,250,50z"/>
		<path class="st1" d="M271.1,31c0,0.4-0.1,0.8-0.3,1.2c-0.2,0.4-0.4,0.7-0.7,1c-0.3,0.3-0.6,0.5-1,0.7c-0.4,0.2-0.8,0.3-1.2,0.3
			c-0.4,0-0.9-0.1-1.2-0.3c-0.4-0.2-0.7-0.4-1-0.7c-0.3-0.3-0.5-0.6-0.7-1c-0.2-0.4-0.3-0.8-0.3-1.2c0-0.4,0.1-0.8,0.3-1.2
			c0.2-0.4,0.4-0.7,0.7-1c0.3-0.3,0.6-0.5,1-0.7c0.4-0.2,0.8-0.3,1.2-0.3c0.4,0,0.9,0.1,1.2,0.3c0.4,0.2,0.7,0.4,1,0.7
			c0.3,0.3,0.5,0.6,0.7,1C271.1,30.1,271.1,30.5,271.1,31z M271.1,62.8h-6.4v-25h6.4V62.8z"/>
		<path class="st1" d="M300.3,62.8h-20.8L290,44.2h-10.5v-6.3h20.8l-10.5,18.6h10.5V62.8z"/>
	</g>
</g>
</svg>
