<?xml version="1.0" encoding="utf-8"?>
<!-- Generator: Adobe Illustrator 19.0.0, SVG Export Plug-In . SVG Version: 6.00 Build 0)  -->
<svg version="1.1" id="Layer_1" xmlns="http://www.w3.org/2000/svg" xmlns:xlink="http://www.w3.org/1999/xlink" x="0px" y="0px"
	 viewBox="0 0 125 125" style="enable-background:new 0 0 125 125;" xml:space="preserve">
<style type="text/css">
	.st0{fill:#D84444;}
	.st1{fill:#FF5252;}
	.st2{fill:#FAB400;}
	.st3{fill:#DC9600;}
	.st4{fill:#F0F0F0;}
	.st5{fill:#3CC8B4;}
	.st6{fill:#1EAA96;}
	.st7{fill:#505050;}
</style>
<g id="Icons_00000171720599979736148180000006497253725433517999_">
	<g>
		<g>
			<path class="st0" d="M43.7,103c-15.2-7.1-25.9-22.5-25.9-40.5V35.7H8.9v26.8l0,0c0,27.4,20.6,50,47.1,53.2L43.7,103z"/>
		</g>
		<g>
			<path class="st1" d="M13.4,62.5L13.4,62.5V35.7H8.9v26.8l0,0c0,27.4,20.6,50,47.1,53.2l-0.9-1C31.2,109.3,13.4,88,13.4,62.5z"/>
		</g>
		<g>
			<path class="st2" d="M78.8,88.1l10.5-15.7l4.7,7c2.7-5,4.2-10.8,4.2-16.9l0,0c0-19.7-16-35.7-35.7-35.7s-35.7,16-35.7,35.7l0,0
				c0,19.7,16,35.7,35.7,35.7c4.6,0,9-0.9,13.1-2.5C76.2,93,77.2,90.4,78.8,88.1z"/>
		</g>
		<g>
			<path class="st3" d="M35.7,62.5L35.7,62.5c0-18.2,13.6-33.2,31.3-35.4c-1.5-0.2-2.9-0.3-4.5-0.3c-19.7,0-35.7,16-35.7,35.7l0,0
				c0,19.7,16,35.7,35.7,35.7c1.5,0,3-0.1,4.5-0.3C49.4,95.7,35.7,80.7,35.7,62.5z"/>
		</g>
		<g>
			<polygon class="st4" points="62.5,35.7 49.1,67 62.5,67 62.5,89.3 75.9,58 62.5,58 			"/>
		</g>
		<g>
			<path class="st5" d="M89.3,80.4l-6.8,10.2c-5.9,8.8-2.7,20.8,6.8,25.5l0,0l0,0c9.5-4.7,12.7-16.7,6.8-25.5L89.3,80.4z"/>
		</g>
		<g>
			<path class="st5" d="M89.3,125l12.6-12.6c3.3-3.3,7.9-5.2,12.6-5.2H125l-12.6,12.6c-3.3,3.3-7.9,5.2-12.6,5.2H89.3z"/>
		</g>
		<g>
			<path class="st6" d="M119,107.2h-4.5c-4.7,0-9.3,1.9-12.6,5.2L89.3,125h4.5l12.6-12.6C109.7,109,114.3,107.2,119,107.2z"/>
		</g>
		<g>
			<path class="st5" d="M89.3,125l-12.6-12.6c-3.3-3.3-7.9-5.2-12.6-5.2H53.6l12.6,12.6c3.3,3.3,7.9,5.2,12.6,5.2H89.3z"/>
		</g>
		<g>
			<path class="st6" d="M58,107.2h-4.5l12.6,12.6c3.3,3.3,7.9,5.2,12.6,5.2h4.5c-4.7,0-9.3-1.9-12.6-5.2L58,107.2z"/>
		</g>
		<g>
			<rect x="88.2" y="93.8" class="st6" width="2.2" height="31.3"/>
		</g>
		<g>
			<path class="st6" d="M89.3,113.6c-6.5-5.7-8.2-15.5-3.1-23.1l5-7.4l-1.8-2.7l-6.8,10.2c-5.9,8.8-2.7,20.8,6.8,25.5l0,0V113.6z"/>
		</g>
		<g>
			<path class="st6" d="M67,17.9c-0.8,0-1.5,0.1-2.2,0.1c23.6,1.2,42.4,20.7,42.4,44.5c0,9.3-2.8,17.9-7.7,25l0.3,0.5
				c0.6,0.9,1.1,1.9,1.6,2.9c6.4-7.7,10.2-17.6,10.2-28.5l0,0C111.6,37.9,91.6,17.9,67,17.9z"/>
		</g>
		<g>
			<path class="st1" d="M22.3,35.7H4.5c-2.5,0-4.5-2-4.5-4.5V13.4h26.8v17.9C26.8,33.7,24.8,35.7,22.3,35.7z"/>
		</g>
		<g>
			<path class="st0" d="M4.5,31.3V13.4H0v17.9c0,2.5,2,4.5,4.5,4.5h4.5C6.5,35.7,4.5,33.7,4.5,31.3z"/>
		</g>
		<g>
			<path class="st0" d="M62.5,8.9c-11.7,0-22.5,3.7-31.3,10.1v11.7c8.1-7.9,19.1-12.8,31.3-12.8c24.6,0,44.7,20,44.7,44.7
				c0,9.3-2.8,17.9-7.7,25l0.3,0.5c1.9,2.8,3,5.9,3.5,9.2c8-9.4,12.8-21.5,12.8-34.8l0,0C116.1,32.9,92.1,8.9,62.5,8.9z"/>
		</g>
		<g>
			<path class="st1" d="M67,17.9c-0.8,0-1.5,0.1-2.2,0.1l0,0c23.6,1.2,42.4,20.7,42.4,44.5c0,9.3-2.8,17.9-7.7,25l0.3,0.5
				c0.6,0.9,1.1,1.9,1.6,2.9c6.4-7.7,10.2-17.6,10.2-28.4C111.6,37.9,91.6,17.9,67,17.9z"/>
		</g>
		<g>
			<path class="st7" d="M8.9,13.4H4.5V2.2C4.5,1,5.5,0,6.7,0l0,0c1.2,0,2.2,1,2.2,2.2V13.4z"/>
		</g>
		<g>
			<path class="st7" d="M22.3,13.4h-4.5V2.2c0-1.2,1-2.2,2.2-2.2l0,0c1.2,0,2.2,1,2.2,2.2V13.4z"/>
		</g>
		<g>
			<path class="st1" d="M31.3,19v3.6c9-8,20.6-13.1,33.5-13.6l0,0c-0.7,0-1.5-0.1-2.2-0.1C50.8,8.9,40.1,12.7,31.3,19z"/>
		</g>
		<g>
			<rect x="4.5" y="17.9" class="st0" width="17.9" height="4.5"/>
		</g>
	</g>
</g>
</svg>
