<?xml version="1.0" encoding="utf-8"?>
<!-- Generator: Adobe Illustrator 19.0.0, SVG Export Plug-In . SVG Version: 6.00 Build 0)  -->
<svg version="1.1" id="Layer_1" xmlns="http://www.w3.org/2000/svg" xmlns:xlink="http://www.w3.org/1999/xlink" x="0px" y="0px"
	 viewBox="0 0 58.7 23.9" style="enable-background:new 0 0 58.7 23.9;" xml:space="preserve">
<style type="text/css">
	.st0{opacity:0.2;}
	.st1{fill:#2F2F5C;}
</style>
<g class="st0">
	<path class="st1" d="M55.8,0.2C47.7,7,39.5,13.9,31.4,20.8c-1.2,1-2.3,2-3.5,2.9c1,0,1.9,0,2.9,0C22.6,16.8,14.5,10,6.3,3.1
		c-1.2-1-2.3-2-3.5-2.9C2.6-0.1,1.8,0,1.4,0C1.3,0,0,0.2,0,0.2C8.1,7,16.3,13.9,24.4,20.8c1.2,1,2.3,2,3.5,2.9
		c0.3,0.3,2.5,0.3,2.9,0C38.9,16.8,47.1,10,55.2,3.1c1.2-1,2.3-2,3.5-2.9c0,0-1.3-0.1-1.4-0.1C56.9,0,56.1-0.1,55.8,0.2L55.8,0.2z"
		/>
</g>
</svg>
