<?xml version="1.0" encoding="utf-8"?>
<!-- Generator: Adobe Illustrator 19.0.0, SVG Export Plug-In . SVG Version: 6.00 Build 0)  -->
<svg version="1.1" id="Layer_1" xmlns="http://www.w3.org/2000/svg" xmlns:xlink="http://www.w3.org/1999/xlink" x="0px" y="0px"
	 viewBox="0 0 29.1 71.9" style="enable-background:new 0 0 29.1 71.9;" xml:space="preserve">
<style type="text/css">
	.st0{opacity:0.2;}
	.st1{fill:#2F2F5C;}
</style>
<g class="st0">
	<path class="st1" d="M0.2,3.5c8.4,10,16.9,20,25.3,29.9c1.2,1.4,2.4,2.8,3.6,4.2c0-1.2,0-2.3,0-3.5c-8.4,10-16.9,20-25.3,29.9
		c-1.2,1.4-2.4,2.8-3.6,4.2C-0.1,68.7,0,69.7,0,70.1c0,0.2,0.2,1.7,0.2,1.7c8.4-10,16.9-20,25.3-29.9c1.2-1.4,2.4-2.8,3.6-4.2
		c0.3-0.4,0.3-3.1,0-3.5c-8.4-10-16.9-20-25.3-29.9C2.6,2.8,1.4,1.4,0.2,0C0.2,0,0,1.6,0,1.7C0,2.2-0.1,3.2,0.2,3.5L0.2,3.5z"/>
</g>
</svg>
