<?xml version="1.0" encoding="utf-8"?>
<!-- Generator: Adobe Illustrator 26.0.1, SVG Export Plug-In . SVG Version: 6.00 Build 0)  -->
<svg version="1.1" id="Layer_1" xmlns="http://www.w3.org/2000/svg" xmlns:xlink="http://www.w3.org/1999/xlink" x="0px" y="0px"
	 viewBox="0 0 68.63 54.39" style="enable-background:new 0 0 68.63 54.39;" xml:space="preserve">
<style type="text/css">
	.st0{fill:#D84544;}
</style>
<g>
	<path class="st0" d="M28.45,3.56l-6.7,24.37c-0.77,2.8-4.76,2.74-5.45-0.08l0,0c-0.49-1.99,1.26-3.87,3.26-3.44
		c2.72,0.59,5.05,1.78,6.99,3.58c2.88,2.67,4.32,6.35,4.32,11.04c0,4.59-1.47,8.29-4.4,11.12c-2.93,2.83-6.59,4.24-10.96,4.24
		c-4.48,0-8.19-1.41-11.12-4.24C1.46,47.33,0,43.62,0,39.03c0-1.38,0.1-2.74,0.32-4.08c0.21-1.33,0.64-2.9,1.28-4.72
		c0.64-1.81,1.54-4.21,2.72-7.2l8.57-21.27C13.32,0.7,14.35,0,15.5,0h10.24C27.6,0,28.95,1.77,28.45,3.56z M66.21,3.56l-6.7,24.37
		c-0.77,2.8-4.76,2.74-5.45-0.08l0,0c-0.49-1.99,1.26-3.87,3.26-3.44c2.72,0.59,5.05,1.78,6.99,3.58c2.88,2.67,4.32,6.35,4.32,11.04
		c0,4.59-1.47,8.29-4.4,11.12c-2.93,2.83-6.59,4.24-10.96,4.24c-4.48,0-8.19-1.41-11.12-4.24c-2.93-2.83-4.4-6.53-4.4-11.12
		c0-1.38,0.1-2.74,0.32-4.08c0.21-1.33,0.64-2.9,1.28-4.72c0.64-1.81,1.54-4.21,2.72-7.2l8.57-21.27C51.07,0.7,52.1,0,53.25,0h10.24
		C65.35,0,66.7,1.77,66.21,3.56z"/>
</g>
</svg>
